<?xml version="1.0" encoding="UTF-8"?>
<svg width="60px" height="60px" viewBox="0 0 60 60" version="1.1" xmlns="http://www.w3.org/2000/svg" xmlns:xlink="http://www.w3.org/1999/xlink">
    <!-- Generator: Sketch 54.1 (76490) - https://sketchapp.com -->
    <title>fb</title>
    <desc>Created with Sketch.</desc>
    <g id="Page-1" stroke="none" stroke-width="1" fill="none" fill-rule="evenodd">
        <g id="3" fill="#05005C">
            <path d="M5.31259348,0 L54.6694586,0 C56.1411905,0 57.4693389,0.581497797 58.4385283,1.53303965 C59.3897697,2.4845815 60,3.78854626 60,5.21585903 L60,54.784141 C60,56.2290749 59.3897697,57.5330396 58.4385283,58.4669604 C57.4693389,59.4185022 56.1411905,60 54.6694586,60 L5.31259348,60 C3.85880945,60 2.53066108,59.4185022 1.56147173,58.4669604 C0.592282381,57.5330396 0,56.2290749 0,54.784141 L0,5.21585903 C0,3.78854626 0.592282381,2.4845815 1.56147173,1.53303965 C2.53066108,0.581497797 3.85880945,0 5.31259348,0 Z M54.6694586,3.47136564 L5.31259348,3.47136564 C4.8279988,3.47136564 4.37930003,3.66519824 4.05623691,3.98237885 C3.7331738,4.29955947 3.53574634,4.74008811 3.53574634,5.21585903 L3.53574634,54.784141 C3.53574634,55.2599119 3.7331738,55.7004405 4.05623691,56.0176211 C4.37930003,56.3348018 4.8279988,56.5286344 5.31259348,56.5286344 L54.6694586,56.5286344 C55.1720012,56.5286344 55.6207,56.3348018 55.9437631,56.0176211 C56.2668262,55.7004405 56.4642537,55.2599119 56.4642537,54.784141 L56.4642537,5.21585903 C56.4642537,4.74008811 56.2668262,4.29955947 55.9437631,3.98237885 C55.6207,3.66519824 55.1720012,3.47136564 54.6694586,3.47136564 Z" id="fb" fill-rule="nonzero"></path>
            <path d="M39.711038,26.7488987 L39.711038,22.784141 C39.711038,18.8017621 41.8109483,19.5418502 47.033802,19.5418502 L47.033802,12 L40.069997,12 C29.4986539,12 30.5396351,20.3700441 30.5396351,26.7488987 L25.7834281,26.7488987 L25.7834281,34.2907489 L30.5396351,34.2907489 L30.5396351,56.5991189 L39.711038,56.5991189 L39.711038,34.2907489 C47.9850434,34.2907489 45.9569249,34.8370044 46.4056237,30.8017621 C46.5133114,29.9735683 46.6209991,27.5770925 47.033802,26.7488987 L39.711038,26.7488987 Z" id="fb"></path>
        </g>
    </g>
</svg>