<?xml version="1.0" encoding="UTF-8"?>
<svg width="204px" height="121px" viewBox="0 0 204 121" version="1.1" xmlns="http://www.w3.org/2000/svg" xmlns:xlink="http://www.w3.org/1999/xlink">
    <!-- Generator: Sketch 54.1 (76490) - https://sketchapp.com -->
    <title>geco</title>
    <desc>Created with Sketch.</desc>
    <g id="Page-1" stroke="none" stroke-width="1" fill="none" fill-rule="evenodd">
        <g id="Group-2">
            <path d="M2,118.832974 L2,110.237127 L3.0185451,110.237127 L3.0185451,118.832974 L2,118.832974 Z M13.0881313,118.832974 L13.0881313,110.237127 L13.8445352,110.237127 L19.4230138,116.28386 L19.4230138,110.237127 L20.7939958,110.237127 L20.7939958,118.832974 L20.0848672,118.832974 L14.4591133,112.78624 L14.4591133,118.832974 L13.0881313,118.832974 Z M34.1728894,118.832974 L34.1728894,110.237127 L34.9292933,110.237127 L40.5077719,116.28386 L40.5077719,110.237127 L41.8787539,110.237127 L41.8787539,118.832974 L41.1696253,118.832974 L35.5438714,112.78624 L35.5438714,118.832974 L34.1728894,118.832974 Z M59.8906213,117.825185 C61.0725024,117.825185 62.0180072,117.528776 62.7744111,116.876677 C63.530815,116.28386 63.8617417,115.513198 63.8617417,114.564691 C63.8617417,113.616184 63.530815,112.78624 62.7744111,112.193423 C62.0180072,111.541324 61.0725024,111.244916 59.8906213,111.244916 C58.7087402,111.244916 57.7632354,111.541324 57.0068315,112.193423 C56.2977029,112.78624 55.9195009,113.556902 55.9195009,114.564691 C55.9195009,115.513198 56.2977029,116.28386 57.0068315,116.876677 C57.7632354,117.528776 58.7087402,117.825185 59.8906213,117.825185 Z M59.8906213,119.0701 C58.3305383,119.0701 57.0068315,118.655129 56.0140514,117.765903 C55.0212713,116.935959 54.5012437,115.868889 54.5012437,114.564691 C54.5012437,113.201212 54.9739961,112.134141 56.0140514,111.304197 C57.0068315,110.414972 58.3305383,110 59.8906213,110 C61.4979795,110 62.7744111,110.414972 63.7671912,111.304197 C64.8072465,112.134141 65.2799989,113.201212 65.2799989,114.564691 C65.2799989,115.868889 64.8072465,116.935959 63.7671912,117.765903 C62.7744111,118.655129 61.4507043,119.0701 59.8906213,119.0701 Z M81.7317833,118.832974 L81.0226547,118.832974 L76.6260571,110.237127 L78.0915896,110.237127 L81.4008566,116.639551 L84.6628483,110.237127 L86.1756561,110.237127 L81.7317833,118.832974 Z M99.1269451,115.092725 L102.18258,115.092725 L100.675692,112.03709 L99.1269451,115.092725 Z M95.6779798,118.832974 L100.169128,110.237127 L101.067357,110.237127 L105.605781,118.832974 L104.092973,118.832974 L102.958367,116.639551 L98.2781181,116.639551 L97.1435123,118.832974 L95.6779798,118.832974 Z M118.606472,118.832974 L118.606472,111.422761 L114.871728,111.422761 L114.871728,110.237127 L123.712199,110.237127 L123.712199,111.422761 L119.977454,111.422761 L119.977454,118.832974 L118.606472,118.832974 Z M137.473549,118.832974 L137.473549,110.237127 L139.145478,110.237127 L139.145478,118.832974 L137.473549,118.832974 Z M154.866583,117.825185 C156.048464,117.825185 157.041244,117.528776 157.750373,116.876677 C158.506777,116.28386 158.884979,115.513198 158.884979,114.564691 C158.884979,113.616184 158.506777,112.78624 157.750373,112.193423 C156.993969,111.541324 156.048464,111.244916 154.866583,111.244916 C153.731977,111.244916 152.739197,111.541324 152.030069,112.193423 C151.273665,112.78624 150.895463,113.556902 150.895463,114.564691 C150.895463,115.513198 151.273665,116.28386 152.030069,116.876677 C152.739197,117.528776 153.731977,117.825185 154.866583,117.825185 Z M154.866583,119.0701 C153.3065,119.0701 152.030069,118.655129 150.990013,117.765903 C149.997233,116.935959 149.477206,115.868889 149.477206,114.564691 C149.477206,113.201212 149.997233,112.134141 150.990013,111.304197 C152.030069,110.414972 153.3065,110 154.866583,110 C156.473942,110 157.750373,110.414972 158.790428,111.304197 C159.783209,112.134141 160.303236,113.201212 160.303236,114.564691 C160.303236,115.868889 159.783209,116.935959 158.790428,117.765903 C157.750373,118.655129 156.473942,119.0701 154.866583,119.0701 Z M172.925726,118.832974 L172.925726,110.237127 L173.634855,110.237127 L179.260608,116.28386 L179.260608,110.237127 L180.584315,110.237127 L180.584315,118.832974 L179.875187,118.832974 L174.249433,112.78624 L174.249433,118.832974 L172.925726,118.832974 Z M193.206805,117.706621 L193.868658,116.580269 C194.483236,116.995241 195.14509,117.291649 195.854218,117.528776 C196.610622,117.765903 197.272476,117.825185 197.934329,117.825185 C198.738008,117.825185 199.352586,117.706621 199.825339,117.410213 C200.298091,117.054523 200.581743,116.698832 200.581743,116.165297 C200.581743,115.691043 200.345367,115.335353 199.919889,115.098226 C199.447137,114.8611 198.738008,114.742536 197.792503,114.683254 C196.185145,114.683254 195.097815,114.505409 194.483236,114.149719 C193.915934,113.794029 193.585007,113.260494 193.585007,112.489831 C193.585007,111.719169 193.915934,111.126352 194.577787,110.71138 C195.23964,110.237127 196.13787,110 197.225201,110 C197.981604,110 198.738008,110.118563 199.447137,110.35569 C200.156266,110.533535 200.865394,110.829944 201.527248,111.244916 L200.818119,112.371268 C200.250816,112.015578 199.683513,111.719169 199.02166,111.541324 C198.407082,111.304197 197.792503,111.244916 197.225201,111.244916 C196.563347,111.244916 195.996044,111.363479 195.617842,111.541324 C195.192365,111.778451 195.003264,112.07486 195.003264,112.43055 C195.003264,112.845522 195.192365,113.082649 195.617842,113.260494 C195.996044,113.438339 196.752448,113.49762 197.745228,113.49762 C199.163485,113.49762 200.203541,113.734747 200.912669,114.209001 C201.621798,114.683254 202,115.335353 202,116.28386 C202,117.054523 201.621798,117.765903 200.912669,118.299438 C200.203541,118.832974 199.258036,119.0701 198.076155,119.0701 C197.225201,119.0701 196.374246,118.951537 195.523292,118.71441 C194.672337,118.477283 193.915934,118.180875 193.206805,117.706621 Z" id="Shape" fill="#05005C"></path>
            <path d="M16.852634,85.2998375 C16.852634,84.5572058 17.1311209,83.9074031 17.6416802,83.3968438 C18.198654,82.83987 18.8484567,82.6077976 19.5910884,82.6077976 L41.1738222,82.6077976 C42.1021119,82.6077976 42.983987,82.7934556 43.8194477,83.1183569 C44.6549083,83.4896728 45.3511256,84.0002321 46.0009283,84.6036203 C46.6043165,85.2070086 47.0684614,85.9496403 47.4397772,86.785101 C47.7646786,87.6205616 47.903922,88.5488512 47.903922,89.4771409 L47.903922,90.7303319 C47.903922,91.6586215 47.7646786,92.5404966 47.4397772,93.3759573 C47.0684614,94.2578324 46.6043165,94.9540497 46.0009283,95.6038524 C45.3511256,96.2072407 44.6549083,96.7178 43.8194477,97.0427013 C42.983987,97.4140172 42.1021119,97.5996751 41.1738222,97.5996751 L11.7934556,97.5996751 C10.2617777,97.5996751 8.86934324,97.2283592 7.7089812,96.4393131 C6.50220469,95.6966814 5.4810861,94.7219773 4.59921095,93.5616152 C3.76375029,92.3548387 3.11394755,91.0552332 2.64980274,89.5699698 C2.23207241,88.1311209 2,86.692272 2,85.2998375 C2,83.8609886 2.23207241,82.4221397 2.69621722,80.9832908 C3.16036203,79.5444419 3.85657925,78.2448364 4.7384544,77.0380599 C5.66674402,75.8776978 6.73427709,74.9029937 8.03388257,74.160362 C9.28707357,73.3713159 10.772337,73 12.3504293,73 L45.2118821,73 C45.9545138,73 46.6043165,73.2784869 47.1148758,73.7890462 C47.6718496,74.34602 47.903922,74.9494082 47.903922,75.7384544 C47.903922,76.4810861 47.6718496,77.1308888 47.1148758,77.6414481 C46.6043165,78.1520074 45.9545138,78.4304943 45.2118821,78.4304943 L13.6036203,78.4304943 C12.3040149,78.4304943 11.2364818,78.6625667 10.4010211,79.1267115 C9.61197494,79.5908563 8.9621722,80.1942446 8.49802738,80.8440473 C8.03388257,81.5402646 7.7089812,82.2828963 7.56973776,83.0719424 C7.38407983,83.9074031 7.29125087,84.6036203 7.29125087,85.2998375 C7.29125087,85.9960548 7.38407983,86.7386865 7.56973776,87.5277327 C7.7089812,88.3167788 8.03388257,89.0594105 8.49802738,89.7556278 C8.9621722,90.451845 9.61197494,91.0088188 10.4010211,91.4729636 C11.2364818,91.9371084 12.3040149,92.1691808 13.6036203,92.1691808 L40.9417498,92.1691808 C41.4058946,92.1691808 41.7772105,91.9835229 42.1485263,91.5657925 C42.5198422,91.1480622 42.7055001,90.6375029 42.7055001,90.0805291 C42.7055001,89.5235553 42.5198422,89.0594105 42.1949408,88.6416802 C41.8700395,88.2239499 41.4523091,87.9918775 40.9417498,87.9918775 L19.5910884,87.9918775 C18.8484567,87.9918775 18.198654,87.7598051 17.6416802,87.2028313 C17.1311209,86.692272 16.852634,86.0424693 16.852634,85.2998375 Z M53.5664887,75.7384544 C53.5664887,74.9494082 53.8449756,74.34602 54.3555349,73.7890462 C54.8660942,73.2784869 55.515897,73 56.2585287,73 L96.2213971,73 C96.9640288,73 97.6138315,73.2784869 98.1243908,73.7890462 C98.6813646,74.34602 98.913437,74.9494082 98.913437,75.7384544 C98.913437,76.4810861 98.6813646,77.1308888 98.1243908,77.6414481 C97.6138315,78.1520074 96.9640288,78.4304943 96.2213971,78.4304943 L56.2585287,78.4304943 C55.515897,78.4304943 54.8660942,78.1520074 54.3555349,77.6414481 C53.8449756,77.1308888 53.5664887,76.4810861 53.5664887,75.7384544 Z M60.435832,97.5996751 C59.6003713,97.5996751 58.7649107,97.4140172 57.9758645,97.0427013 C57.1404038,96.7178 56.3977721,96.2072407 55.7479694,95.5574379 C55.0981666,94.9076352 54.5876073,94.1650035 54.169877,93.2367139 C53.7521467,92.3548387 53.5664887,91.3337201 53.5664887,90.2197726 L53.5664887,85.1141796 C53.5664887,84.1394755 53.8449756,83.4432583 54.4483639,83.1183569 C55.0053377,82.7470411 55.9336273,82.6077976 57.1868183,82.6077976 L94.9682061,82.6077976 C95.7108378,82.6077976 96.3606405,82.83987 96.9176143,83.3968438 C97.4281736,83.9074031 97.7066605,84.5572058 97.7066605,85.2998375 C97.7066605,86.0424693 97.4281736,86.692272 96.9176143,87.2028313 C96.3606405,87.7598051 95.7108378,87.9918775 94.9682061,87.9918775 L58.9505686,87.9918775 L58.9505686,90.7767463 C58.9505686,91.1480622 59.1362265,91.4729636 59.4611279,91.7514505 C59.7860292,92.0299373 60.2037596,92.1691808 60.7143189,92.1691808 L96.2213971,92.1691808 C96.9640288,92.1691808 97.6138315,92.4476677 98.1243908,92.958227 C98.6813646,93.5152007 98.913437,94.118589 98.913437,94.8612207 C98.913437,95.6502669 98.6813646,96.2536551 98.1243908,96.8106289 C97.6138315,97.3211882 96.9640288,97.5996751 96.2213971,97.5996751 L60.435832,97.5996751 Z M104.576004,85.2998375 C104.576004,83.8609886 104.808076,82.4221397 105.272221,80.9832908 C105.736366,79.5444419 106.432583,78.2448364 107.314458,77.0380599 C108.242748,75.8776978 109.310281,74.9029937 110.609886,74.160362 C111.863077,73.3713159 113.301926,73 114.926433,73 L147.787886,73 C148.530518,73 149.18032,73.2784869 149.69088,73.7890462 C150.247853,74.34602 150.479926,74.9494082 150.479926,75.7384544 C150.479926,76.4810861 150.247853,77.1308888 149.69088,77.6414481 C149.18032,78.1520074 148.530518,78.4304943 147.787886,78.4304943 L116.13321,78.4304943 C114.78719,78.4304943 113.719657,78.6625667 112.93061,79.1267115 C112.141564,79.5908563 111.491761,80.1942446 111.027617,80.8440473 C110.563472,81.5402646 110.23857,82.2828963 110.052913,83.0719424 C109.867255,83.9074031 109.82084,84.6036203 109.82084,85.2998375 C109.82084,85.9960548 109.867255,86.7386865 110.052913,87.5277327 C110.23857,88.3167788 110.563472,89.0594105 111.027617,89.7556278 C111.491761,90.451845 112.141564,91.0088188 112.93061,91.4729636 C113.719657,91.9371084 114.78719,92.1691808 116.13321,92.1691808 L147.787886,92.1691808 C148.530518,92.1691808 149.18032,92.4476677 149.69088,92.958227 C150.247853,93.5152007 150.479926,94.118589 150.479926,94.8612207 C150.479926,95.6502669 150.247853,96.2536551 149.69088,96.8106289 C149.18032,97.3211882 148.530518,97.5996751 147.787886,97.5996751 L114.369459,97.5996751 C112.837781,97.5996751 111.445347,97.2283592 110.23857,96.4393131 C109.031794,95.6966814 108.010675,94.7219773 107.175215,93.5616152 C106.339754,92.3548387 105.689951,91.0552332 105.225806,89.5699698 C104.808076,88.1311209 104.576004,86.692272 104.576004,85.2998375 Z M190.442794,92.1691808 C191.7424,92.1691808 192.763518,91.9371084 193.598979,91.4729636 C194.43444,91.0088188 195.084242,90.451845 195.548387,89.7556278 C196.012532,89.0594105 196.337433,88.3167788 196.523091,87.5277327 C196.662335,86.7386865 196.755164,85.9960548 196.755164,85.2998375 C196.755164,84.6036203 196.662335,83.9074031 196.523091,83.0719424 C196.337433,82.2828963 196.012532,81.5402646 195.548387,80.8440473 C195.084242,80.1942446 194.43444,79.5908563 193.598979,79.1267115 C192.763518,78.6625667 191.7424,78.4304943 190.442794,78.4304943 L167.699698,78.4304943 C166.353678,78.4304943 165.286145,78.6625667 164.497099,79.1267115 C163.708053,79.5908563 163.05825,80.1942446 162.594105,80.8440473 C162.129961,81.5402646 161.805059,82.2828963 161.619401,83.0719424 C161.433743,83.9074031 161.387329,84.6036203 161.387329,85.2998375 C161.387329,85.9960548 161.433743,86.7386865 161.619401,87.5277327 C161.805059,88.3167788 162.129961,89.0594105 162.594105,89.7556278 C163.05825,90.451845 163.708053,91.0088188 164.497099,91.4729636 C165.286145,91.9371084 166.353678,92.1691808 167.699698,92.1691808 L190.442794,92.1691808 Z M202,85.2998375 C202,86.7386865 201.767928,88.1775354 201.303783,89.6163843 C200.839638,91.0552332 200.143421,92.3548387 199.261546,93.5616152 C198.333256,94.7219773 197.265723,95.6966814 195.966117,96.4393131 C194.712926,97.2283592 193.227663,97.5996751 191.649571,97.5996751 L165.935948,97.5996751 C164.40427,97.5068461 163.011836,97.0891158 161.805059,96.3000696 C160.598283,95.5574379 159.577164,94.5827338 158.741703,93.4223718 C157.906243,92.2620097 157.25644,90.9624043 156.792295,89.5235553 C156.374565,88.0847064 156.142492,86.692272 156.142492,85.2998375 C156.142492,83.8609886 156.374565,82.4221397 156.83871,80.9832908 C157.302854,79.5444419 157.999072,78.2448364 158.880947,77.0380599 C159.809236,75.8776978 160.87677,74.9029937 162.176375,74.160362 C163.429566,73.3713159 164.868415,73 166.492922,73 L192.206544,73 C193.738222,73.092829 195.084242,73.5105593 196.291019,74.2996055 C197.497795,75.0422372 198.518914,76.0169413 199.400789,77.1773033 C200.23625,78.3376654 200.886052,79.6372708 201.303783,81.0761197 C201.767928,82.5149687 202,83.9074031 202,85.2998375 Z" id="geco" fill="#05005C"></path>
            <g id="circles" transform="translate(15.000000, 4.000000)" fill-rule="nonzero" stroke="#05005C">
                <path d="M32.9997178,-5.35127498e-14 L109.299065,-5.35127498e-14 C110.249057,-5.35127498e-14 111.09905,0.399996579 111.749044,0.999991448 C112.349039,1.64998589 112.749036,2.49997862 112.749036,3.4499705 L112.749036,21.9498123 C112.749036,22.8998042 112.349039,23.7497969 111.749044,24.3997913 C111.09905,24.9997862 110.249057,25.3997828 109.299065,25.3997828 L32.9997178,25.3997828 C32.0497259,25.3997828 31.1997332,24.9997862 30.5997383,24.3997913 C29.9497439,23.7497969 29.5997469,22.8998042 29.5997469,21.9498123 L29.5997469,3.4499705 C29.5997469,2.49997862 29.9497439,1.64998589 30.5997469,1 C31.1997332,0.399996579 32.0497259,-5.35127498e-14 32.9997178,-5.35127498e-14 Z" id="top"></path>
                <path d="M3.4499705,16.0498627 L79.749318,16.0498627 C80.6993098,16.0498627 81.5493026,16.4498593 82.1492974,17.0498542 C82.7992919,17.6998486 83.1492889,18.5498414 83.1492889,19.4998332 L83.1492889,37.999675 C83.1492889,38.9496669 82.7992919,39.7996596 82.1492974,40.3996545 L82.1492974,40.4496541 C81.5493026,41.0496489 80.6993098,41.4496455 79.749318,41.4496455 L3.4499705,41.4496455 C2.49997862,41.4496455 1.64998589,41.0496489 1.04999102,40.4496541 C0.399996579,39.7996596 -5.10702591e-15,38.9496669 -5.10702591e-15,37.999675 L-5.10702591e-15,19.4998332 C-5.10702591e-15,18.5498414 0.399996579,17.6998486 1,17.0498627 C1.64998589,16.4498593 2.49997862,16.0498627 3.4499705,16.0498627 Z" id="left"></path>
                <path d="M55.3495266,30.9497353 L131.648874,30.9497353 C132.598866,30.9497353 133.448859,31.2997323 134.048854,31.9497268 C134.698848,32.5497216 135.098845,33.4497139 135.098845,34.3497062 L135.098845,52.849548 C135.098845,53.7995399 134.698848,54.6995322 134.048854,55.2995271 C133.448859,55.8995219 132.598866,56.2995185 131.648874,56.2995185 L55.3495266,56.2995185 C54.3995348,56.2995185 53.549542,55.8995219 52.9495472,55.2995271 C52.2995527,54.6995322 51.8995561,53.7995399 51.8995561,52.849548 L51.8995561,34.3497062 C51.8995561,33.4497139 52.2995527,32.5497216 52.9495472,31.9497268 C53.549542,31.2997323 54.3995348,30.9497353 55.3495266,30.9497353 Z" id="bottom"></path>
                <path d="M99.8491461,16.0498627 L170.148545,16.0498627 C171.048537,16.0498627 171.948529,16.4498593 172.548524,17.0498542 C173.198519,17.6998486 173.548516,18.5498414 173.548516,19.4998332 L173.548516,37.999675 C173.548516,38.9496669 173.198519,39.7996596 172.548524,40.4496541 C171.948529,41.0496489 171.048537,41.4496455 170.148545,41.4496455 L99.8491461,41.4496455 C98.8991542,41.4496455 98.0491615,41.0496489 97.4491666,40.4496541 L97.399167,40.3996545 C96.7991722,39.7996596 96.3991756,38.9496669 96.3991756,37.999675 L96.3991756,19.4998332 C96.3991756,18.5498414 96.7991722,17.6998486 97.3991756,17.0498627 C98.0491615,16.4498593 98.8991542,16.0498627 99.8491461,16.0498627 Z" id="right"></path>
            </g>
        </g>
    </g>
</svg>