<?xml version="1.0" encoding="UTF-8"?>
<svg width="280px" height="280px" viewBox="0 0 280 280" version="1.1" xmlns="http://www.w3.org/2000/svg" xmlns:xlink="http://www.w3.org/1999/xlink">
    <!-- Generator: Sketch 54.1 (76490) - https://sketchapp.com -->
    <title>geco_bg</title>
    <desc>Created with Sketch.</desc>
    <g id="Page-1" stroke="none" stroke-width="1" fill="none" fill-rule="evenodd">
        <g id="Group">
            <circle id="Oval" fill="#05005C" cx="140" cy="140" r="140"></circle>
            <path d="M40,196.832974 L40,188.237127 L41.0185451,188.237127 L41.0185451,196.832974 L40,196.832974 Z M51.0881313,196.832974 L51.0881313,188.237127 L51.8445352,188.237127 L57.4230138,194.28386 L57.4230138,188.237127 L58.7939958,188.237127 L58.7939958,196.832974 L58.0848672,196.832974 L52.4591133,190.78624 L52.4591133,196.832974 L51.0881313,196.832974 Z M72.1728894,196.832974 L72.1728894,188.237127 L72.9292933,188.237127 L78.5077719,194.28386 L78.5077719,188.237127 L79.8787539,188.237127 L79.8787539,196.832974 L79.1696253,196.832974 L73.5438714,190.78624 L73.5438714,196.832974 L72.1728894,196.832974 Z M97.8906213,195.825185 C99.0725024,195.825185 100.018007,195.528776 100.774411,194.876677 C101.530815,194.28386 101.861742,193.513198 101.861742,192.564691 C101.861742,191.616184 101.530815,190.78624 100.774411,190.193423 C100.018007,189.541324 99.0725024,189.244916 97.8906213,189.244916 C96.7087402,189.244916 95.7632354,189.541324 95.0068315,190.193423 C94.2977029,190.78624 93.9195009,191.556902 93.9195009,192.564691 C93.9195009,193.513198 94.2977029,194.28386 95.0068315,194.876677 C95.7632354,195.528776 96.7087402,195.825185 97.8906213,195.825185 Z M97.8906213,197.0701 C96.3305383,197.0701 95.0068315,196.655129 94.0140514,195.765903 C93.0212713,194.935959 92.5012437,193.868889 92.5012437,192.564691 C92.5012437,191.201212 92.9739961,190.134141 94.0140514,189.304197 C95.0068315,188.414972 96.3305383,188 97.8906213,188 C99.4979795,188 100.774411,188.414972 101.767191,189.304197 C102.807247,190.134141 103.279999,191.201212 103.279999,192.564691 C103.279999,193.868889 102.807247,194.935959 101.767191,195.765903 C100.774411,196.655129 99.4507043,197.0701 97.8906213,197.0701 Z M119.731783,196.832974 L119.022655,196.832974 L114.626057,188.237127 L116.09159,188.237127 L119.400857,194.639551 L122.662848,188.237127 L124.175656,188.237127 L119.731783,196.832974 Z M137.126945,193.092725 L140.18258,193.092725 L138.675692,190.03709 L137.126945,193.092725 Z M133.67798,196.832974 L138.169128,188.237127 L139.067357,188.237127 L143.605781,196.832974 L142.092973,196.832974 L140.958367,194.639551 L136.278118,194.639551 L135.143512,196.832974 L133.67798,196.832974 Z M156.606472,196.832974 L156.606472,189.422761 L152.871728,189.422761 L152.871728,188.237127 L161.712199,188.237127 L161.712199,189.422761 L157.977454,189.422761 L157.977454,196.832974 L156.606472,196.832974 Z M175.473549,196.832974 L175.473549,188.237127 L177.145478,188.237127 L177.145478,196.832974 L175.473549,196.832974 Z M192.866583,195.825185 C194.048464,195.825185 195.041244,195.528776 195.750373,194.876677 C196.506777,194.28386 196.884979,193.513198 196.884979,192.564691 C196.884979,191.616184 196.506777,190.78624 195.750373,190.193423 C194.993969,189.541324 194.048464,189.244916 192.866583,189.244916 C191.731977,189.244916 190.739197,189.541324 190.030069,190.193423 C189.273665,190.78624 188.895463,191.556902 188.895463,192.564691 C188.895463,193.513198 189.273665,194.28386 190.030069,194.876677 C190.739197,195.528776 191.731977,195.825185 192.866583,195.825185 Z M192.866583,197.0701 C191.3065,197.0701 190.030069,196.655129 188.990013,195.765903 C187.997233,194.935959 187.477206,193.868889 187.477206,192.564691 C187.477206,191.201212 187.997233,190.134141 188.990013,189.304197 C190.030069,188.414972 191.3065,188 192.866583,188 C194.473942,188 195.750373,188.414972 196.790428,189.304197 C197.783209,190.134141 198.303236,191.201212 198.303236,192.564691 C198.303236,193.868889 197.783209,194.935959 196.790428,195.765903 C195.750373,196.655129 194.473942,197.0701 192.866583,197.0701 Z M210.925726,196.832974 L210.925726,188.237127 L211.634855,188.237127 L217.260608,194.28386 L217.260608,188.237127 L218.584315,188.237127 L218.584315,196.832974 L217.875187,196.832974 L212.249433,190.78624 L212.249433,196.832974 L210.925726,196.832974 Z M231.206805,195.706621 L231.868658,194.580269 C232.483236,194.995241 233.14509,195.291649 233.854218,195.528776 C234.610622,195.765903 235.272476,195.825185 235.934329,195.825185 C236.738008,195.825185 237.352586,195.706621 237.825339,195.410213 C238.298091,195.054523 238.581743,194.698832 238.581743,194.165297 C238.581743,193.691043 238.345367,193.335353 237.919889,193.098226 C237.447137,192.8611 236.738008,192.742536 235.792503,192.683254 C234.185145,192.683254 233.097815,192.505409 232.483236,192.149719 C231.915934,191.794029 231.585007,191.260494 231.585007,190.489831 C231.585007,189.719169 231.915934,189.126352 232.577787,188.71138 C233.23964,188.237127 234.13787,188 235.225201,188 C235.981604,188 236.738008,188.118563 237.447137,188.35569 C238.156266,188.533535 238.865394,188.829944 239.527248,189.244916 L238.818119,190.371268 C238.250816,190.015578 237.683513,189.719169 237.02166,189.541324 C236.407082,189.304197 235.792503,189.244916 235.225201,189.244916 C234.563347,189.244916 233.996044,189.363479 233.617842,189.541324 C233.192365,189.778451 233.003264,190.07486 233.003264,190.43055 C233.003264,190.845522 233.192365,191.082649 233.617842,191.260494 C233.996044,191.438339 234.752448,191.49762 235.745228,191.49762 C237.163485,191.49762 238.203541,191.734747 238.912669,192.209001 C239.621798,192.683254 240,193.335353 240,194.28386 C240,195.054523 239.621798,195.765903 238.912669,196.299438 C238.203541,196.832974 237.258036,197.0701 236.076155,197.0701 C235.225201,197.0701 234.374246,196.951537 233.523292,196.71441 C232.672337,196.477283 231.915934,196.180875 231.206805,195.706621 Z" id="Shape" fill="#FFFFFF"></path>
            <path d="M54.852634,163.299838 C54.852634,162.557206 55.1311209,161.907403 55.6416802,161.396844 C56.198654,160.83987 56.8484567,160.607798 57.5910884,160.607798 L79.1738222,160.607798 C80.1021119,160.607798 80.983987,160.793456 81.8194477,161.118357 C82.6549083,161.489673 83.3511256,162.000232 84.0009283,162.60362 C84.6043165,163.207009 85.0684614,163.94964 85.4397772,164.785101 C85.7646786,165.620562 85.903922,166.548851 85.903922,167.477141 L85.903922,168.730332 C85.903922,169.658621 85.7646786,170.540497 85.4397772,171.375957 C85.0684614,172.257832 84.6043165,172.95405 84.0009283,173.603852 C83.3511256,174.207241 82.6549083,174.7178 81.8194477,175.042701 C80.983987,175.414017 80.1021119,175.599675 79.1738222,175.599675 L49.7934556,175.599675 C48.2617777,175.599675 46.8693432,175.228359 45.7089812,174.439313 C44.5022047,173.696681 43.4810861,172.721977 42.599211,171.561615 C41.7637503,170.354839 41.1139476,169.055233 40.6498027,167.56997 C40.2320724,166.131121 40,164.692272 40,163.299838 C40,161.860989 40.2320724,160.42214 40.6962172,158.983291 C41.160362,157.544442 41.8565793,156.244836 42.7384544,155.03806 C43.666744,153.877698 44.7342771,152.902994 46.0338826,152.160362 C47.2870736,151.371316 48.772337,151 50.3504293,151 L83.2118821,151 C83.9545138,151 84.6043165,151.278487 85.1148758,151.789046 C85.6718496,152.34602 85.903922,152.949408 85.903922,153.738454 C85.903922,154.481086 85.6718496,155.130889 85.1148758,155.641448 C84.6043165,156.152007 83.9545138,156.430494 83.2118821,156.430494 L51.6036203,156.430494 C50.3040149,156.430494 49.2364818,156.662567 48.4010211,157.126712 C47.6119749,157.590856 46.9621722,158.194245 46.4980274,158.844047 C46.0338826,159.540265 45.7089812,160.282896 45.5697378,161.071942 C45.3840798,161.907403 45.2912509,162.60362 45.2912509,163.299838 C45.2912509,163.996055 45.3840798,164.738686 45.5697378,165.527733 C45.7089812,166.316779 46.0338826,167.059411 46.4980274,167.755628 C46.9621722,168.451845 47.6119749,169.008819 48.4010211,169.472964 C49.2364818,169.937108 50.3040149,170.169181 51.6036203,170.169181 L78.9417498,170.169181 C79.4058946,170.169181 79.7772105,169.983523 80.1485263,169.565793 C80.5198422,169.148062 80.7055001,168.637503 80.7055001,168.080529 C80.7055001,167.523555 80.5198422,167.059411 80.1949408,166.64168 C79.8700395,166.22395 79.4523091,165.991877 78.9417498,165.991877 L57.5910884,165.991877 C56.8484567,165.991877 56.198654,165.759805 55.6416802,165.202831 C55.1311209,164.692272 54.852634,164.042469 54.852634,163.299838 Z M91.5664887,153.738454 C91.5664887,152.949408 91.8449756,152.34602 92.3555349,151.789046 C92.8660942,151.278487 93.515897,151 94.2585287,151 L134.221397,151 C134.964029,151 135.613832,151.278487 136.124391,151.789046 C136.681365,152.34602 136.913437,152.949408 136.913437,153.738454 C136.913437,154.481086 136.681365,155.130889 136.124391,155.641448 C135.613832,156.152007 134.964029,156.430494 134.221397,156.430494 L94.2585287,156.430494 C93.515897,156.430494 92.8660942,156.152007 92.3555349,155.641448 C91.8449756,155.130889 91.5664887,154.481086 91.5664887,153.738454 Z M98.435832,175.599675 C97.6003713,175.599675 96.7649107,175.414017 95.9758645,175.042701 C95.1404038,174.7178 94.3977721,174.207241 93.7479694,173.557438 C93.0981666,172.907635 92.5876073,172.165003 92.169877,171.236714 C91.7521467,170.354839 91.5664887,169.33372 91.5664887,168.219773 L91.5664887,163.11418 C91.5664887,162.139476 91.8449756,161.443258 92.4483639,161.118357 C93.0053377,160.747041 93.9336273,160.607798 95.1868183,160.607798 L132.968206,160.607798 C133.710838,160.607798 134.360641,160.83987 134.917614,161.396844 C135.428174,161.907403 135.70666,162.557206 135.70666,163.299838 C135.70666,164.042469 135.428174,164.692272 134.917614,165.202831 C134.360641,165.759805 133.710838,165.991877 132.968206,165.991877 L96.9505686,165.991877 L96.9505686,168.776746 C96.9505686,169.148062 97.1362265,169.472964 97.4611279,169.75145 C97.7860292,170.029937 98.2037596,170.169181 98.7143189,170.169181 L134.221397,170.169181 C134.964029,170.169181 135.613832,170.447668 136.124391,170.958227 C136.681365,171.515201 136.913437,172.118589 136.913437,172.861221 C136.913437,173.650267 136.681365,174.253655 136.124391,174.810629 C135.613832,175.321188 134.964029,175.599675 134.221397,175.599675 L98.435832,175.599675 Z M142.576004,163.299838 C142.576004,161.860989 142.808076,160.42214 143.272221,158.983291 C143.736366,157.544442 144.432583,156.244836 145.314458,155.03806 C146.242748,153.877698 147.310281,152.902994 148.609886,152.160362 C149.863077,151.371316 151.301926,151 152.926433,151 L185.787886,151 C186.530518,151 187.18032,151.278487 187.69088,151.789046 C188.247853,152.34602 188.479926,152.949408 188.479926,153.738454 C188.479926,154.481086 188.247853,155.130889 187.69088,155.641448 C187.18032,156.152007 186.530518,156.430494 185.787886,156.430494 L154.13321,156.430494 C152.78719,156.430494 151.719657,156.662567 150.93061,157.126712 C150.141564,157.590856 149.491761,158.194245 149.027617,158.844047 C148.563472,159.540265 148.23857,160.282896 148.052913,161.071942 C147.867255,161.907403 147.82084,162.60362 147.82084,163.299838 C147.82084,163.996055 147.867255,164.738686 148.052913,165.527733 C148.23857,166.316779 148.563472,167.059411 149.027617,167.755628 C149.491761,168.451845 150.141564,169.008819 150.93061,169.472964 C151.719657,169.937108 152.78719,170.169181 154.13321,170.169181 L185.787886,170.169181 C186.530518,170.169181 187.18032,170.447668 187.69088,170.958227 C188.247853,171.515201 188.479926,172.118589 188.479926,172.861221 C188.479926,173.650267 188.247853,174.253655 187.69088,174.810629 C187.18032,175.321188 186.530518,175.599675 185.787886,175.599675 L152.369459,175.599675 C150.837781,175.599675 149.445347,175.228359 148.23857,174.439313 C147.031794,173.696681 146.010675,172.721977 145.175215,171.561615 C144.339754,170.354839 143.689951,169.055233 143.225806,167.56997 C142.808076,166.131121 142.576004,164.692272 142.576004,163.299838 Z M228.442794,170.169181 C229.7424,170.169181 230.763518,169.937108 231.598979,169.472964 C232.43444,169.008819 233.084242,168.451845 233.548387,167.755628 C234.012532,167.059411 234.337433,166.316779 234.523091,165.527733 C234.662335,164.738686 234.755164,163.996055 234.755164,163.299838 C234.755164,162.60362 234.662335,161.907403 234.523091,161.071942 C234.337433,160.282896 234.012532,159.540265 233.548387,158.844047 C233.084242,158.194245 232.43444,157.590856 231.598979,157.126712 C230.763518,156.662567 229.7424,156.430494 228.442794,156.430494 L205.699698,156.430494 C204.353678,156.430494 203.286145,156.662567 202.497099,157.126712 C201.708053,157.590856 201.05825,158.194245 200.594105,158.844047 C200.129961,159.540265 199.805059,160.282896 199.619401,161.071942 C199.433743,161.907403 199.387329,162.60362 199.387329,163.299838 C199.387329,163.996055 199.433743,164.738686 199.619401,165.527733 C199.805059,166.316779 200.129961,167.059411 200.594105,167.755628 C201.05825,168.451845 201.708053,169.008819 202.497099,169.472964 C203.286145,169.937108 204.353678,170.169181 205.699698,170.169181 L228.442794,170.169181 Z M240,163.299838 C240,164.738686 239.767928,166.177535 239.303783,167.616384 C238.839638,169.055233 238.143421,170.354839 237.261546,171.561615 C236.333256,172.721977 235.265723,173.696681 233.966117,174.439313 C232.712926,175.228359 231.227663,175.599675 229.649571,175.599675 L203.935948,175.599675 C202.40427,175.506846 201.011836,175.089116 199.805059,174.30007 C198.598283,173.557438 197.577164,172.582734 196.741703,171.422372 C195.906243,170.26201 195.25644,168.962404 194.792295,167.523555 C194.374565,166.084706 194.142492,164.692272 194.142492,163.299838 C194.142492,161.860989 194.374565,160.42214 194.83871,158.983291 C195.302854,157.544442 195.999072,156.244836 196.880947,155.03806 C197.809236,153.877698 198.87677,152.902994 200.176375,152.160362 C201.429566,151.371316 202.868415,151 204.492922,151 L230.206544,151 C231.738222,151.092829 233.084242,151.510559 234.291019,152.299605 C235.497795,153.042237 236.518914,154.016941 237.400789,155.177303 C238.23625,156.337665 238.886052,157.637271 239.303783,159.07612 C239.767928,160.514969 240,161.907403 240,163.299838 Z" id="geco" fill="#FFFFFF"></path>
            <g id="circles" transform="translate(53.000000, 82.000000)" fill-rule="nonzero" stroke="#FFFFFF">
                <path d="M32.9997178,-5.35127498e-14 L109.299065,-5.35127498e-14 C110.249057,-5.35127498e-14 111.09905,0.399996579 111.749044,0.999991448 C112.349039,1.64998589 112.749036,2.49997862 112.749036,3.4499705 L112.749036,21.9498123 C112.749036,22.8998042 112.349039,23.7497969 111.749044,24.3997913 C111.09905,24.9997862 110.249057,25.3997828 109.299065,25.3997828 L32.9997178,25.3997828 C32.0497259,25.3997828 31.1997332,24.9997862 30.5997383,24.3997913 C29.9497439,23.7497969 29.5997469,22.8998042 29.5997469,21.9498123 L29.5997469,3.4499705 C29.5997469,2.49997862 29.9497439,1.64998589 30.5997469,1 C31.1997332,0.399996579 32.0497259,-5.35127498e-14 32.9997178,-5.35127498e-14 Z" id="top"></path>
                <path d="M3.4499705,16.0498627 L79.749318,16.0498627 C80.6993098,16.0498627 81.5493026,16.4498593 82.1492974,17.0498542 C82.7992919,17.6998486 83.1492889,18.5498414 83.1492889,19.4998332 L83.1492889,37.999675 C83.1492889,38.9496669 82.7992919,39.7996596 82.1492974,40.3996545 L82.1492974,40.4496541 C81.5493026,41.0496489 80.6993098,41.4496455 79.749318,41.4496455 L3.4499705,41.4496455 C2.49997862,41.4496455 1.64998589,41.0496489 1.04999102,40.4496541 C0.399996579,39.7996596 -5.10702591e-15,38.9496669 -5.10702591e-15,37.999675 L-5.10702591e-15,19.4998332 C-5.10702591e-15,18.5498414 0.399996579,17.6998486 1,17.0498627 C1.64998589,16.4498593 2.49997862,16.0498627 3.4499705,16.0498627 Z" id="left"></path>
                <path d="M55.3495266,30.9497353 L131.648874,30.9497353 C132.598866,30.9497353 133.448859,31.2997323 134.048854,31.9497268 C134.698848,32.5497216 135.098845,33.4497139 135.098845,34.3497062 L135.098845,52.849548 C135.098845,53.7995399 134.698848,54.6995322 134.048854,55.2995271 C133.448859,55.8995219 132.598866,56.2995185 131.648874,56.2995185 L55.3495266,56.2995185 C54.3995348,56.2995185 53.549542,55.8995219 52.9495472,55.2995271 C52.2995527,54.6995322 51.8995561,53.7995399 51.8995561,52.849548 L51.8995561,34.3497062 C51.8995561,33.4497139 52.2995527,32.5497216 52.9495472,31.9497268 C53.549542,31.2997323 54.3995348,30.9497353 55.3495266,30.9497353 Z" id="bottom"></path>
                <path d="M99.8491461,16.0498627 L170.148545,16.0498627 C171.048537,16.0498627 171.948529,16.4498593 172.548524,17.0498542 C173.198519,17.6998486 173.548516,18.5498414 173.548516,19.4998332 L173.548516,37.999675 C173.548516,38.9496669 173.198519,39.7996596 172.548524,40.4496541 C171.948529,41.0496489 171.048537,41.4496455 170.148545,41.4496455 L99.8491461,41.4496455 C98.8991542,41.4496455 98.0491615,41.0496489 97.4491666,40.4496541 L97.399167,40.3996545 C96.7991722,39.7996596 96.3991756,38.9496669 96.3991756,37.999675 L96.3991756,19.4998332 C96.3991756,18.5498414 96.7991722,17.6998486 97.3991756,17.0498627 C98.0491615,16.4498593 98.8991542,16.0498627 99.8491461,16.0498627 Z" id="right"></path>
            </g>
        </g>
    </g>
</svg>