<?xml version="1.0" encoding="UTF-8"?>
<!DOCTYPE svg PUBLIC "-//W3C//DTD SVG 1.1//EN" "http://www.w3.org/Graphics/SVG/1.1/DTD/svg11.dtd">
<!-- Creator: CorelDRAW X7 -->
<svg xmlns="http://www.w3.org/2000/svg" xml:space="preserve" width="100px" height="100px" version="1.1" style="shape-rendering:geometricPrecision; text-rendering:geometricPrecision; image-rendering:optimizeQuality; fill-rule:evenodd; clip-rule:evenodd"
viewBox="0 0 11693 16535"
 xmlns:xlink="http://www.w3.org/1999/xlink">
 <defs>
  <style type="text/css">
   <![CDATA[
    .fil0 {fill:#05005C}
    .fil1 {fill:#05005C;fill-rule:nonzero}
   ]]>
  </style>
 </defs>
 <g id="Слой_x0020_1">
  <metadata id="CorelCorpID_0Corel-Layer"/>
  <g id="_2605051847216">
   <g>
    <path class="fil0" d="M4012 8852c0,-16 6,-30 17,-41 12,-12 26,-17 42,-17l465 0c20,0 39,4 57,11 18,8 33,19 47,32 13,13 23,29 31,47 7,18 10,38 10,58l0 27c0,20 -3,39 -10,57 -8,19 -18,34 -31,48 -14,13 -29,24 -47,31 -18,8 -37,12 -57,12l-633 0c-33,0 -63,-8 -88,-25 -26,-16 -48,-37 -67,-62 -18,-26 -32,-54 -42,-86 -9,-31 -14,-62 -14,-92 0,-31 5,-62 15,-93 10,-31 25,-59 44,-85 20,-25 43,-46 71,-62 27,-17 59,-25 93,-25l708 0c16,0 30,6 41,17 12,12 17,25 17,42 0,16 -5,30 -17,41 -11,11 -25,17 -41,17l-681 0c-28,0 -51,5 -69,15 -17,10 -31,23 -41,37 -10,15 -17,31 -20,48 -4,18 -6,33 -6,48 0,15 2,31 6,48 3,17 10,33 20,48 10,15 24,27 41,37 18,10 41,15 69,15l589 0c10,0 18,-4 26,-13 8,-9 12,-20 12,-32 0,-12 -4,-22 -11,-31 -7,-9 -16,-14 -27,-14l-460 0c-16,0 -30,-5 -42,-17 -11,-11 -17,-25 -17,-41zm791 -206c0,-17 6,-30 17,-42 11,-11 25,-17 41,-17l861 0c16,0 30,6 41,17 12,12 17,25 17,42 0,16 -5,30 -17,41 -11,11 -25,17 -41,17l-861 0c-16,0 -30,-6 -41,-17 -11,-11 -17,-25 -17,-41zm148 471c-18,0 -36,-4 -53,-12 -18,-7 -34,-18 -48,-32 -14,-14 -25,-30 -34,-50 -9,-19 -13,-41 -13,-65l0 -110c0,-21 6,-36 19,-43 12,-8 32,-11 59,-11l814 0c16,0 30,5 42,17 11,11 17,25 17,41 0,16 -6,30 -17,41 -12,12 -26,17 -42,17l-776 0 0 60c0,8 4,15 11,21 7,6 16,9 27,9l765 0c16,0 30,6 41,17 12,12 17,25 17,41 0,17 -5,30 -17,42 -11,11 -25,17 -41,17l-771 0zm951 -265c0,-31 5,-62 15,-93 10,-31 25,-59 44,-85 20,-25 43,-46 71,-62 27,-17 58,-25 93,-25l708 0c16,0 30,6 41,17 12,12 17,25 17,42 0,16 -5,30 -17,41 -11,11 -25,17 -41,17l-682 0c-29,0 -52,5 -69,15 -17,10 -31,23 -41,37 -10,15 -17,31 -21,48 -4,18 -5,33 -5,48 0,15 1,31 5,48 4,17 11,33 21,48 10,15 24,27 41,37 17,10 40,15 69,15l682 0c16,0 30,6 41,17 12,12 17,25 17,41 0,17 -5,30 -17,42 -11,11 -25,17 -41,17l-720 0c-33,0 -63,-8 -89,-25 -26,-16 -48,-37 -66,-62 -18,-26 -32,-54 -42,-86 -9,-31 -14,-62 -14,-92zm1850 148c28,0 50,-5 68,-15 18,-10 32,-22 42,-37 10,-15 17,-31 21,-48 3,-17 5,-33 5,-48 0,-15 -2,-30 -5,-48 -4,-17 -11,-33 -21,-48 -10,-14 -24,-27 -42,-37 -18,-10 -40,-15 -68,-15l-490 0c-29,0 -52,5 -69,15 -17,10 -31,23 -41,37 -10,15 -17,31 -21,48 -4,18 -5,33 -5,48 0,15 1,31 5,48 4,17 11,33 21,48 10,15 24,27 41,37 17,10 40,15 69,15l490 0zm249 -148c0,31 -5,62 -15,93 -10,31 -25,59 -44,85 -20,25 -43,46 -71,62 -27,17 -59,25 -93,25l-554 0c-33,-2 -63,-11 -89,-28 -26,-16 -48,-37 -66,-62 -18,-25 -32,-53 -42,-84 -9,-31 -14,-61 -14,-91 0,-31 5,-62 15,-93 10,-31 25,-59 44,-85 20,-25 43,-46 71,-62 27,-17 58,-25 93,-25l554 0c33,2 62,11 88,28 26,16 48,37 67,62 18,25 32,53 41,84 10,31 15,61 15,91z"/>
    <path class="fil0" d="M3692 9463l0 -145 29 0 0 145 -29 0zm313 0l0 -145 16 0 118 102 0 -102 29 0 0 145 -15 0 -119 -102 0 102 -29 0zm446 0l0 -145 16 0 118 102 0 -102 29 0 0 145 -15 0 -119 -102 0 102 -29 0zm544 -17c25,0 45,-5 61,-16 16,-10 23,-23 23,-39 0,-16 -7,-30 -23,-40 -16,-11 -36,-16 -61,-16 -25,0 -45,5 -61,16 -15,10 -23,23 -23,40 0,16 8,29 23,39 16,11 36,16 61,16zm0 21c-33,0 -61,-7 -82,-22 -21,-14 -32,-32 -32,-54 0,-23 10,-41 32,-55 21,-15 49,-22 82,-22 34,0 61,7 82,22 22,14 32,32 32,55 0,22 -10,40 -32,54 -21,15 -49,22 -82,22zm462 -4l-15 0 -93 -145 31 0 70 108 69 -108 32 0 -94 145zm363 -56l73 0 -36 -56 -37 56zm-68 56l95 -145 19 0 96 145 -32 0 -24 -37 -99 0 -24 37 -31 0zm485 0l0 -125 -79 0 0 -20 187 0 0 20 -79 0 0 125 -29 0zm356 0l0 -145 30 0 0 145 -30 0zm411 -17c25,0 46,-5 61,-16 16,-10 24,-23 24,-39 0,-16 -8,-30 -24,-40 -16,-11 -36,-16 -61,-16 -24,0 -45,5 -60,16 -16,10 -24,23 -24,40 0,16 8,29 24,39 15,11 36,16 60,16zm0 21c-33,0 -60,-7 -82,-22 -21,-14 -32,-32 -32,-54 0,-23 11,-41 32,-55 22,-15 49,-22 82,-22 34,0 61,7 83,22 21,14 32,32 32,55 0,22 -11,40 -32,54 -22,15 -49,22 -83,22zm382 -4l0 -145 15 0 119 102 0 -102 28 0 0 145 -15 0 -119 -102 0 102 -28 0zm429 -19l14 -19c13,7 27,12 42,16 16,4 30,5 44,5 17,0 30,-2 40,-7 10,-6 16,-12 16,-21 0,-8 -5,-14 -14,-18 -10,-4 -25,-6 -45,-7 -34,0 -57,-3 -70,-9 -12,-6 -19,-15 -19,-28 0,-13 7,-23 21,-30 14,-8 33,-12 56,-12 16,0 32,2 47,6 15,3 30,8 44,15l-15 19c-12,-6 -24,-11 -38,-14 -13,-4 -26,-5 -38,-5 -14,0 -26,2 -34,5 -9,4 -13,9 -13,15 0,7 4,11 13,14 8,3 24,4 45,4 30,0 52,4 67,12 15,8 23,19 23,35 0,13 -8,25 -23,34 -15,9 -35,13 -60,13 -18,0 -36,-2 -54,-6 -18,-4 -34,-9 -49,-17z"/>
   </g>
   <g>
    <path class="fil1" d="M4756 7068l1526 0c19,0 36,8 49,20 12,13 20,30 20,49l0 370c0,19 -8,36 -20,49 -13,12 -30,20 -49,20l-1526 0c-19,0 -36,-8 -48,-20 -13,-13 -20,-30 -20,-49l0 -370c0,-19 7,-36 20,-49 12,-12 29,-20 48,-20zm1526 62l-1526 0c-2,0 -3,1 -5,2 -1,1 -2,3 -2,5l0 370c0,2 1,4 2,5 2,1 3,2 5,2l1526 0c2,0 4,-1 5,-2 2,-1 2,-3 2,-5l0 -370c0,-2 0,-4 -2,-5 -1,-1 -3,-2 -5,-2z"/>
    <path class="fil1" d="M4165 7389l1526 0c19,0 36,8 48,20 13,13 20,30 20,49l0 370c0,19 -7,36 -20,48l0 1c-12,12 -29,20 -48,20l-1526 0c-19,0 -36,-8 -48,-20 -13,-13 -21,-30 -21,-49l0 -370c0,-19 8,-36 20,-49 13,-12 30,-20 49,-20zm1526 62l-1526 0c-2,0 -4,1 -5,2 -1,1 -2,3 -2,5l0 370c0,2 1,4 2,5 1,1 3,2 5,2l1526 0c2,0 4,-1 5,-2l0 0c1,-1 2,-3 2,-5l0 -370c0,-2 -1,-4 -2,-5 -1,-1 -3,-2 -5,-2z"/>
    <path class="fil1" d="M5203 7687l1526 0c19,0 36,7 48,20 13,12 21,30 21,48l0 370c0,19 -8,37 -21,49 -12,12 -29,20 -48,20l-1526 0c-19,0 -36,-8 -48,-20 -13,-12 -21,-30 -21,-49l0 -370c0,-18 8,-36 21,-48 12,-13 29,-20 48,-20zm1526 61l-1526 0c-2,0 -4,1 -5,2 -1,2 -2,3 -2,5l0 370c0,2 1,4 2,6 1,1 3,2 5,2l1526 0c2,0 4,-1 5,-2 1,-2 2,-4 2,-6l0 -370c0,-2 -1,-3 -2,-5 -1,-1 -3,-2 -5,-2z"/>
    <path class="fil1" d="M6093 7389l1406 0c18,0 36,8 48,20 13,13 20,30 20,49l0 370c0,19 -7,36 -20,49 -12,12 -30,20 -48,20l-1406 0c-19,0 -36,-8 -48,-20l-1 -1c-12,-12 -20,-29 -20,-48l0 -370c0,-19 8,-36 20,-49 13,-12 30,-20 49,-20zm1406 62l-1406 0c-2,0 -4,1 -5,2 -1,1 -2,3 -2,5l0 370c0,2 1,4 2,5l0 0c1,1 3,2 5,2l1406 0c2,0 3,-1 5,-2 1,-1 2,-3 2,-5l0 -370c0,-2 -1,-4 -2,-5 -2,-1 -4,-2 -5,-2z"/>
   </g>
  </g>
 </g>
</svg>
