<?xml version="1.0" encoding="UTF-8"?>
<!DOCTYPE svg PUBLIC "-//W3C//DTD SVG 1.1//EN" "http://www.w3.org/Graphics/SVG/1.1/DTD/svg11.dtd">
<!-- Creator: CorelDRAW X7 -->
<svg xmlns="http://www.w3.org/2000/svg" xml:space="preserve" width="11.6929in" height="16.5354in" version="1.1" style="shape-rendering:geometricPrecision; text-rendering:geometricPrecision; image-rendering:optimizeQuality; fill-rule:evenodd; clip-rule:evenodd"
viewBox="0 0 11693 16535"
 xmlns:xlink="http://www.w3.org/1999/xlink">
 <defs>
  <style type="text/css">
   <![CDATA[
    .fil1 {fill:#05005C}
    .fil0 {fill:#05005C;fill-rule:nonzero}
   ]]>
  </style>
 </defs>
 <g id="Слой_x0020_1">
  <metadata id="CorelCorpID_0Corel-Layer"/>
  <path class="fil0" d="M4471 6565l2750 0c82,0 156,33 210,87 53,54 87,128 87,209l0 2813c0,82 -34,156 -87,209 -54,54 -128,87 -210,87l-2750 0c-81,0 -155,-33 -209,-87 -54,-53 -87,-127 -87,-209l0 -2813c0,-81 33,-155 87,-209 54,-54 128,-87 209,-87zm2750 197l-2750 0c-27,0 -52,11 -70,29 -18,18 -29,43 -29,70l0 2813c0,27 11,52 29,70 18,18 43,29 70,29l2750 0c28,0 53,-11 71,-29 18,-18 29,-43 29,-70l0 -2813c0,-27 -11,-52 -29,-70 -18,-18 -43,-29 -71,-29z"/>
  <path class="fil1" d="M6499 8083l0 -225c0,-226 117,-184 408,-184l0 -428 -388 0c-589,0 -531,475 -531,837l-265 0 0 428 265 0 0 1266 511 0 0 -1266c461,0 348,31 373,-198 6,-47 12,-183 35,-230l-408 0z"/>
 </g>
</svg>
