<?xml version="1.0" encoding="UTF-8"?>
<!DOCTYPE svg PUBLIC "-//W3C//DTD SVG 1.1//EN" "http://www.w3.org/Graphics/SVG/1.1/DTD/svg11.dtd">
<!-- Creator: CorelDRAW X7 -->
<svg xmlns="http://www.w3.org/2000/svg" xml:space="preserve" width="11.6929in" height="16.5354in" version="1.1" style="shape-rendering:geometricPrecision; text-rendering:geometricPrecision; image-rendering:optimizeQuality; fill-rule:evenodd; clip-rule:evenodd"
viewBox="0 0 11693 16535"
 xmlns:xlink="http://www.w3.org/1999/xlink">
 <defs>
  <style type="text/css">
   <![CDATA[
    .fil0 {fill:#05005C}
    .fil1 {fill:url(#id0)}
    .fil2 {fill:url(#id1)}
    .fil5 {fill:url(#id2);fill-rule:nonzero}
    .fil3 {fill:url(#id3);fill-rule:nonzero}
    .fil4 {fill:url(#id4);fill-rule:nonzero}
    .fil6 {fill:url(#id5);fill-rule:nonzero}
   ]]>
  </style>
  <linearGradient id="id0" gradientUnits="userSpaceOnUse" x1="5445.67" y1="8154.17" x2="6247.24" y2="8902.99">
   <stop offset="0" style="stop-opacity:1; stop-color:#E6E6E6"/>
   <stop offset="0.25098" style="stop-opacity:1; stop-color:#FEFEFE"/>
   <stop offset="0.529412" style="stop-opacity:1; stop-color:#E4E4E4"/>
   <stop offset="0.780392" style="stop-opacity:1; stop-color:#FEFEFE"/>
   <stop offset="1" style="stop-opacity:1; stop-color:#E6E6E6"/>
  </linearGradient>
  <linearGradient id="id1" gradientUnits="userSpaceOnUse" xlink:href="#id0" x1="5475.03" y1="8422.06" x2="6217.88" y2="9116.06">
  </linearGradient>
  <linearGradient id="id2" gradientUnits="userSpaceOnUse" x1="5697.05" y1="7959.41" x2="6102.6" y2="8283.84">
   <stop offset="0" style="stop-opacity:1; stop-color:#A8A8A8"/>
   <stop offset="0.490196" style="stop-opacity:1; stop-color:white"/>
   <stop offset="1" style="stop-opacity:1; stop-color:#9C9C9C"/>
  </linearGradient>
  <linearGradient id="id3" gradientUnits="userSpaceOnUse" xlink:href="#id2" x1="5497.6" y1="7683.31" x2="5903.15" y2="8007.74">
  </linearGradient>
  <linearGradient id="id4" gradientUnits="userSpaceOnUse" xlink:href="#id2" x1="5233.6" y1="7826.59" x2="5639.15" y2="8151.02">
  </linearGradient>
  <linearGradient id="id5" gradientUnits="userSpaceOnUse" xlink:href="#id2" x1="6079.27" y1="7836.02" x2="6461.25" y2="8141.59">
  </linearGradient>
 </defs>
 <g id="Слой_x0020_1">
  <metadata id="CorelCorpID_0Corel-Layer"/>
  <circle class="fil0" cx="5846" cy="8268" r="1378"/>
  <g id="_2605219394608">
   <g>
    <path class="fil1" d="M5028 8529c0,-8 2,-14 7,-19 5,-5 12,-7 19,-7l207 0c9,0 18,1 26,5 8,3 15,8 21,14 6,6 10,13 13,21 4,8 5,17 5,26l0 12c0,9 -1,17 -5,25 -3,8 -7,16 -13,22 -6,5 -13,10 -21,14 -8,3 -17,5 -26,5l-282 0c-15,0 -28,-4 -40,-11 -11,-7 -21,-17 -29,-28 -8,-11 -15,-24 -19,-38 -4,-14 -6,-28 -6,-41 0,-14 2,-28 6,-42 5,-14 12,-26 20,-38 9,-11 19,-21 32,-28 12,-7 26,-11 41,-11l316 0c8,0 14,3 19,8 5,5 7,11 7,18 0,8 -2,14 -7,19 -5,5 -11,7 -19,7l-304 0c-12,0 -23,3 -30,7 -8,5 -14,10 -19,17 -4,6 -7,13 -9,21 -2,8 -2,15 -2,22 0,6 0,13 2,21 2,8 5,15 9,21 5,7 11,12 19,17 7,4 18,7 30,7l263 0c4,0 8,-2 12,-6 3,-4 5,-9 5,-14 0,-6 -2,-10 -5,-14 -3,-4 -7,-6 -12,-6l-205 0c-7,0 -14,-3 -19,-8 -5,-5 -7,-11 -7,-18zm353 -93c0,-7 2,-13 7,-18 5,-5 11,-8 19,-8l384 0c7,0 13,3 18,8 5,5 8,11 8,18 0,8 -3,14 -8,19 -5,5 -11,7 -18,7l-384 0c-8,0 -14,-2 -19,-7 -5,-5 -7,-11 -7,-19zm66 211c-8,0 -16,-2 -24,-5 -8,-4 -15,-9 -21,-15 -6,-6 -11,-13 -15,-22 -4,-9 -6,-18 -6,-29l0 -49c0,-10 2,-16 8,-20 6,-3 14,-4 26,-4l364 0c7,0 13,2 18,7 5,5 8,11 8,19 0,7 -3,13 -8,18 -5,5 -11,8 -18,8l-346 0 0 26c0,4 1,7 4,10 3,2 7,4 12,4l342 0c7,0 13,2 18,7 5,5 8,12 8,19 0,7 -3,13 -8,18 -5,5 -11,8 -18,8l-344 0zm424 -118c0,-14 2,-28 7,-42 4,-14 11,-26 20,-38 8,-11 19,-21 31,-28 12,-7 26,-11 42,-11l316 0c7,0 13,3 18,8 5,5 8,11 8,18 0,8 -3,14 -8,19 -5,5 -11,7 -18,7l-305 0c-12,0 -23,3 -30,7 -8,5 -14,10 -19,17 -4,6 -7,13 -9,21 -2,8 -2,15 -2,22 0,6 0,13 2,21 2,8 5,15 9,21 5,7 11,12 19,17 7,4 18,7 30,7l305 0c7,0 13,2 18,7 5,5 8,12 8,19 0,7 -3,13 -8,18 -5,5 -11,8 -18,8l-322 0c-14,0 -28,-4 -39,-11 -12,-7 -22,-17 -30,-28 -8,-11 -14,-24 -18,-38 -5,-14 -7,-28 -7,-41zm826 66c12,0 23,-3 31,-7 7,-5 14,-10 18,-17 5,-6 8,-13 9,-21 2,-8 3,-15 3,-21 0,-7 -1,-14 -3,-22 -1,-8 -4,-15 -9,-21 -4,-7 -11,-12 -18,-17 -8,-4 -19,-7 -31,-7l-219 0c-12,0 -23,3 -30,7 -8,5 -14,10 -19,17 -4,6 -7,13 -9,21 -2,8 -3,15 -3,22 0,6 1,13 3,21 2,8 5,15 9,21 5,7 11,12 19,17 7,4 18,7 30,7l219 0zm111 -66c0,13 -2,27 -6,41 -5,14 -12,27 -20,38 -9,11 -19,21 -32,28 -12,7 -26,11 -41,11l-248 0c-14,-1 -28,-5 -39,-12 -12,-8 -22,-17 -30,-28 -8,-12 -14,-24 -18,-38 -5,-13 -7,-27 -7,-40 0,-14 2,-28 7,-42 4,-14 11,-26 20,-38 8,-11 19,-21 31,-28 12,-7 26,-11 42,-11l247 0c15,1 28,5 40,13 11,7 21,16 29,28 8,11 14,23 19,37 4,14 6,27 6,41z"/>
    <path class="fil2" d="M4885 8801l0 -65 13 0 0 65 -13 0zm140 0l0 -64 6 0 53 45 0 -45 13 0 0 64 -7 0 -53 -45 0 45 -12 0zm199 0l0 -64 6 0 53 45 0 -45 13 0 0 64 -7 0 -53 -45 0 45 -12 0zm242 -7c11,0 21,-3 28,-7 7,-5 10,-11 10,-18 0,-7 -3,-13 -11,-18 -7,-4 -16,-7 -27,-7 -11,0 -20,3 -27,7 -7,5 -10,11 -10,18 0,7 3,13 10,18 7,4 16,7 27,7zm0 9c-15,0 -27,-3 -36,-10 -10,-6 -15,-14 -15,-24 0,-10 5,-18 15,-24 9,-7 21,-10 36,-10 15,0 28,3 37,10 10,6 14,14 14,24 0,10 -4,18 -14,24 -9,7 -22,10 -37,10zm207 -2l-7 0 -42 -64 14 0 31 48 31 -48 15 0 -42 64zm162 -25l32 0 -16 -24 -16 24zm-30 25l42 -64 8 0 43 64 -14 0 -11 -16 -44 0 -11 16 -13 0zm216 0l0 -55 -35 0 0 -9 83 0 0 9 -35 0 0 55 -13 0zm159 0l0 -65 13 0 0 65 -13 0zm183 -7c11,0 21,-3 28,-7 7,-5 10,-11 10,-18 0,-7 -3,-13 -10,-18 -8,-4 -17,-7 -28,-7 -11,0 -20,3 -27,7 -7,5 -10,11 -10,18 0,7 3,13 10,18 7,4 16,7 27,7zm0 9c-14,0 -27,-3 -36,-10 -10,-6 -15,-14 -15,-24 0,-10 5,-18 15,-24 9,-7 21,-10 36,-10 15,0 28,3 37,10 10,6 14,14 14,24 0,10 -4,18 -14,24 -9,7 -22,10 -37,10zm171 -2l0 -64 7 0 52 45 0 -45 13 0 0 64 -7 0 -53 -45 0 45 -12 0zm191 -8l7 -9c5,3 12,6 18,7 7,2 14,3 20,3 7,0 13,-1 18,-4 4,-2 7,-5 7,-9 0,-3 -2,-6 -7,-8 -4,-2 -10,-3 -19,-3 -15,0 -26,-1 -32,-4 -5,-2 -8,-7 -8,-13 0,-5 3,-10 9,-13 7,-3 15,-5 25,-5 8,0 14,1 21,2 7,2 13,4 20,7l-7 9c-5,-3 -11,-5 -17,-7 -6,-1 -11,-2 -17,-2 -6,0 -11,1 -15,3 -4,1 -6,4 -6,6 0,3 2,5 6,6 4,2 11,2 20,2 13,0 23,2 30,5 7,4 10,9 10,16 0,6 -3,11 -10,15 -7,4 -16,6 -27,6 -8,0 -16,-1 -24,-2 -8,-2 -15,-5 -22,-8z"/>
   </g>
   <g>
    <path class="fil3" d="M5360 7732l681 0c8,0 16,4 22,9 5,6 9,13 9,22l0 165c0,9 -4,16 -9,22 -6,5 -14,9 -22,9l-681 0c-9,0 -16,-4 -22,-9 -5,-6 -9,-13 -9,-22l0 -165c0,-9 4,-16 9,-22 6,-5 13,-9 22,-9zm681 28l-681 0c-1,0 -2,0 -2,1 -1,0 -1,1 -1,2l0 165c0,1 0,2 1,2 0,1 1,1 2,1l681 0c1,0 2,0 2,-1 1,0 1,-1 1,-2l0 -165c0,-1 0,-2 -1,-2 0,-1 -1,-1 -2,-1z"/>
    <path class="fil4" d="M5096 7876l681 0c8,0 16,3 22,9 5,5 9,13 9,21l0 165c0,9 -4,16 -9,22l0 0c-6,6 -14,9 -22,9l-681 0c-9,0 -16,-3 -22,-9 -5,-5 -9,-13 -9,-22l0 -165c0,-8 4,-16 9,-21 6,-6 13,-9 22,-9zm681 27l-681 0c-1,0 -2,0 -2,1 -1,1 -1,1 -1,2l0 165c0,1 0,2 1,3 0,0 1,1 2,1l681 0c1,0 2,-1 2,-1l0 0c1,-1 1,-2 1,-3l0 -165c0,-1 0,-2 -1,-2 0,-1 -1,-1 -2,-1z"/>
    <path class="fil5" d="M5559 8008l681 0c9,0 17,4 22,9 6,6 9,14 9,22l0 165c0,9 -3,16 -9,22 -6,5 -13,9 -22,9l-681 0c-8,0 -16,-4 -21,-9 -6,-6 -9,-13 -9,-22l0 -165c0,-8 3,-16 9,-22 5,-5 13,-9 21,-9zm681 28l-681 0c-1,0 -1,0 -2,1 -1,0 -1,1 -1,2l0 165c0,1 0,2 1,2 1,1 1,1 2,1l681 0c1,0 2,0 3,0 0,-1 1,-2 1,-3l0 -165c0,-1 -1,-2 -1,-2 -1,-1 -2,-1 -3,-1z"/>
    <path class="fil6" d="M5957 7876l627 0c8,0 16,3 22,9 5,5 9,13 9,21l0 165c0,9 -4,17 -9,22 -6,6 -14,9 -22,9l-627 0c-9,0 -17,-3 -22,-9l0 0c-6,-6 -9,-13 -9,-22l0 -165c0,-8 3,-16 9,-21 5,-6 13,-9 22,-9zm627 27l-627 0c-1,0 -2,0 -3,1 0,0 -1,1 -1,2l0 165c0,1 1,2 1,3l0 0c1,0 2,1 3,1l627 0c1,0 2,-1 2,-1 1,-1 1,-2 1,-3l0 -165c0,-1 0,-1 -1,-2 0,-1 -1,-1 -2,-1z"/>
   </g>
  </g>
 </g>
</svg>
