<?xml version="1.0" encoding="UTF-8"?>
<svg width="60px" height="60px" viewBox="0 0 60 60" version="1.1" xmlns="http://www.w3.org/2000/svg" xmlns:xlink="http://www.w3.org/1999/xlink">
    <!-- Generator: Sketch 54.1 (76490) - https://sketchapp.com -->
    <title>phone</title>
    <desc>Created with Sketch.</desc>
    <g id="Page-1" stroke="none" stroke-width="1" fill="none" fill-rule="evenodd">
        <g id="1" fill="#05005C">
            <path d="M0,13.0116811 C0,15.5104114 0.060944642,17.3082783 0.792280345,19.746064 C2.16353479,24.2864398 2.71203657,25.5967496 4.96698832,29.619096 C5.97257491,31.4474352 7.13052311,33.1234129 8.31894363,34.7993906 L12.0975114,39.5835449 L19.8984256,47.3844591 C20.2031488,47.6891823 20.2945658,47.750127 20.6297613,48.0243779 L22.214322,49.3956323 C25.3224987,51.833418 28.8877603,54.3626206 32.4530218,56.1300152 C37.3285932,58.5678009 41.2595226,60 46.7445404,60 C47.8720163,60 49.4261046,59.4210259 50.126968,58.8115795 C50.4316912,58.5068563 50.7059421,58.3544947 51.0106653,58.0497715 L58.9029964,50.126968 C59.908583,49.1518537 60,48.7861859 60,47.4758761 C60,46.6531234 59.3905536,45.8913154 58.9029964,45.5256475 C58.3240223,45.099035 57.531742,44.6419502 56.9527679,44.3067547 L49.1213814,39.7054342 C48.2376841,39.1569325 45.9217877,37.6333164 45.0076181,37.6333164 C42.4784154,37.6333164 42.4174708,37.785678 40.4062976,39.8273235 C39.9187405,40.2844083 37.877095,42.5393601 37.3895378,42.5393601 C35.3783647,42.5393601 32.087354,40.253936 30.7770442,39.3092941 L26.7546978,35.9573388 C26.297613,35.5002539 25.9014728,35.1345861 25.444388,34.6775013 C25.0177755,34.2204165 24.68258,33.8852209 24.2254952,33.4281361 L22.4885729,31.5388522 C22.2752666,31.234129 22.122905,31.1122397 21.9095988,30.8379888 C21.6962925,30.5942103 21.5439309,30.3504317 21.3306247,30.1066531 C20.0812595,28.5525648 17.4606399,24.5302184 17.4606399,22.7323514 C17.4606399,20.6907059 23.9817166,18.4966988 21.452514,14.2001016 C21.1477908,13.6820721 20.9040122,13.2249873 20.6297613,12.6764855 C18.9537836,9.2940579 16.7597765,5.5154901 15.0533266,2.07211783 C14.3219909,0.63991874 13.5297105,0 11.9451498,0 C10.5434231,0 9.14169629,1.82833926 8.34941595,2.6206196 L2.13306247,8.83697308 C1.49314373,9.47689182 1.21889284,9.78161503 0.731335703,10.5738954 C0.426612494,11.0919248 0,12.249873 0,13.0116811 Z" id="phone"></path>
        </g>
    </g>
</svg>