<?xml version="1.0" standalone="no"?>
<!DOCTYPE svg PUBLIC "-//W3C//DTD SVG 20010904//EN"
 "http://www.w3.org/TR/2001/REC-SVG-20010904/DTD/svg10.dtd">
<svg version="1.0" xmlns="http://www.w3.org/2000/svg"
 width="500.000000pt" height="500.000000pt" viewBox="0 0 500.000000 500.000000"
 preserveAspectRatio="xMidYMid meet">
<metadata>
Created by potrace 1.11, written by Peter Selinger 2001-2013
</metadata>
<g transform="translate(0.000000,500.000000) scale(0.100000,-0.100000)"
fill="#000000" stroke="none">
<path d="M921 3294 c-51 -21 -55 -41 -57 -249 -1 -104 -2 -192 -3 -195 -1 -3
-172 -5 -382 -5 -410 1 -423 -1 -450 -51 -10 -19 -13 -92 -13 -319 0 -276 2
-296 20 -316 10 -12 30 -25 43 -31 15 -5 315 -9 723 -9 534 0 698 -3 699 -12
0 -7 2 -86 3 -177 1 -182 7 -203 59 -224 46 -19 2241 -17 2274 2 42 24 48 48
50 227 1 94 2 173 2 177 1 4 234 7 518 7 l518 0 33 36 33 36 -3 300 -3 301
-32 27 -33 27 -822 -1 c-453 0 -830 1 -838 3 -13 3 -15 31 -14 190 1 204 -5
231 -54 255 -38 20 -2224 21 -2271 1z m2235 -261 c1 -101 -1 -183 -5 -184 -3
0 -73 -2 -156 -3 -193 -2 -215 -15 -216 -121 l-1 -55 -74 -1 c-41 0 -103 0
-139 0 -36 0 -87 0 -114 0 l-49 1 -4 60 c-4 49 -9 66 -31 88 l-27 27 -693 0
-692 1 -3 174 c-1 96 0 180 2 186 3 8 317 11 1103 10 l1098 -1 1 -182z m-2306
-279 c11 -3 15 -18 15 -53 1 -59 18 -95 52 -110 19 -9 215 -12 709 -12 l684 0
0 -79 0 -80 -365 0 c-237 0 -372 -4 -388 -11 -37 -17 -50 -49 -52 -124 l-3
-70 -698 0 -699 0 0 260 c-1 143 1 265 3 271 2 7 113 11 365 12 199 0 369 -1
377 -4z m1458 -41 l3 -43 -43 0 c-55 -1 -1289 -1 -1305 0 -14 0 -15 72 -1 81
5 3 309 6 676 5 l667 -1 3 -42z m849 1 l1 -44 -47 -1 c-235 -4 -255 0 -246 46
2 11 4 25 4 31 1 7 50 11 144 11 l144 0 0 -43z m1740 -232 l3 -272 -506 2
-507 3 -2 71 c-1 75 -21 117 -60 128 -11 3 -230 6 -487 6 -461 0 -468 0 -469
20 -1 11 -1 40 -1 65 0 79 -1 77 40 75 20 -1 90 -2 154 -1 114 1 119 2 149 29
28 25 32 35 34 88 2 32 3 59 4 60 1 1 371 1 824 0 l822 -1 2 -273z m-2119 17
l1 -79 -190 0 -189 0 0 80 0 80 189 -1 188 -1 1 -79z m-468 -229 l0 -60 -360
0 -360 0 1 53 c1 28 3 55 6 60 2 4 164 7 359 7 l354 0 0 -60z m467 -10 c1 -79
17 -115 60 -131 16 -6 210 -11 492 -12 l466 -2 0 -165 0 -165 -1100 0 -1100 0
-1 167 -2 167 369 0 c269 0 373 4 387 12 36 23 52 64 52 133 l0 66 188 0 189
0 0 -70z m1020 10 l0 -60 -466 0 -466 0 2 47 c1 27 2 54 2 61 1 9 101 12 465
12 l463 0 0 -60z"/>
</g>
</svg>
