<?xml version="1.0" standalone="no"?>
<!DOCTYPE svg PUBLIC "-//W3C//DTD SVG 20010904//EN"
 "http://www.w3.org/TR/2001/REC-SVG-20010904/DTD/svg10.dtd">
<svg version="1.0" xmlns="http://www.w3.org/2000/svg"
 width="600.000000pt" height="600.000000pt" viewBox="0 0 600.000000 600.000000"
 preserveAspectRatio="xMidYMid meet">
<metadata>
Created by potrace 1.11, written by Peter Selinger 2001-2013
</metadata>
<g transform="translate(0.000000,600.000000) scale(0.100000,-0.100000)"
fill="#000000" stroke="none">
<path d="M441 5984 c-30 -8 -84 -29 -120 -47 -90 -43 -215 -168 -258 -257 -68
-139 -63 74 -63 -2675 0 -2749 -5 -2536 63 -2675 43 -89 168 -214 257 -257
139 -68 -74 -63 2675 -63 2749 0 2536 -5 2675 63 89 43 214 168 257 257 68
139 63 -74 63 2675 0 2749 5 2536 -63 2675 -43 89 -168 214 -257 257 -139 68
75 63 -2680 62 -2154 0 -2502 -2 -2549 -15z m4744 -1737 c50 -22 111 -80 136
-130 11 -21 22 -66 26 -100 11 -122 -44 -229 -145 -279 l-47 -23 -1730 -5
-1730 -5 -63 -23 c-201 -72 -313 -190 -393 -412 -22 -60 -24 -80 -23 -260 0
-189 1 -197 28 -270 50 -133 94 -207 162 -269 77 -70 136 -103 234 -130 74
-21 88 -21 1558 -21 l1482 0 47 43 c54 50 73 89 73 154 0 73 -18 121 -60 167
l-39 41 -1163 5 c-1154 5 -1163 5 -1208 26 -177 83 -214 347 -66 469 85 70
-10 65 1299 65 1153 0 1186 -1 1262 -20 130 -33 215 -81 315 -179 73 -72 94
-100 128 -171 71 -150 77 -180 77 -405 -1 -192 -2 -203 -28 -280 -76 -217
-238 -383 -442 -453 l-80 -27 -1640 0 c-1543 0 -1644 1 -1705 18 -147 40 -271
117 -401 246 -181 182 -312 439 -374 736 -23 108 -30 309 -16 418 45 338 221
681 444 864 178 146 308 205 507 226 19 2 823 4 1785 3 1662 -1 1752 -2 1790
-19z"/>
</g>
</svg>
